<?xml version="1.0" standalone="no"?>
<!DOCTYPE svg PUBLIC "-//W3C//DTD SVG 20010904//EN"
 "http://www.w3.org/TR/2001/REC-SVG-20010904/DTD/svg10.dtd">
<svg version="1.0" xmlns="http://www.w3.org/2000/svg"
 width="500.000000pt" height="500.000000pt" viewBox="0 0 500.000000 500.000000"
 preserveAspectRatio="xMidYMid meet">

<g transform="translate(0.000000,500.000000) scale(0.100000,-0.100000)"
fill="#000000" stroke="none">
<path d="M2336 4170 c-45 -14 -66 -39 -66 -80 0 -48 23 -69 89 -79 58 -9 77
-22 68 -45 -13 -33 -80 -40 -114 -13 -16 12 -44 -9 -37 -27 13 -35 104 -47
154 -21 86 44 57 135 -48 150 -28 4 -56 13 -63 21 -30 36 29 66 89 44 45 -16
66 1 37 29 -25 23 -71 32 -109 21z"/>
<path d="M2585 4160 c-3 -5 -11 -64 -17 -131 -9 -102 -9 -122 3 -130 12 -8 39
-10 132 -13 16 -1 22 5 22 19 0 16 -9 21 -54 28 -30 4 -56 9 -58 11 -2 2 1 50
6 106 6 56 8 106 5 111 -7 12 -31 11 -39 -1z"/>
<path d="M2100 4106 c0 -27 45 -220 55 -236 8 -12 32 -13 39 -1 5 8 -31 179
-50 244 -8 27 -44 22 -44 -7z"/>
<path d="M2866 4003 c-47 -60 -86 -112 -86 -116 0 -22 34 -18 53 6 l22 26 58
-16 c47 -13 57 -20 57 -38 0 -32 26 -63 41 -48 9 9 8 41 -4 142 -9 72 -19 135
-22 141 -14 23 -38 4 -119 -97z m93 -35 c1 -31 -5 -33 -44 -18 l-26 10 27 36
c25 32 29 34 35 18 4 -11 8 -31 8 -46z"/>
<path d="M1718 3984 c-38 -19 -68 -39 -68 -44 0 -22 34 -22 77 -1 25 12 47 21
48 19 2 -2 7 -55 12 -118 7 -106 10 -115 28 -115 19 0 20 6 17 130 -2 72 -6
138 -8 148 -7 25 -30 21 -106 -19z"/>
<path d="M3184 3998 c-22 -10 -44 -47 -44 -74 0 -8 21 -37 46 -64 51 -55 55
-83 11 -88 -22 -3 -36 5 -61 32 -33 37 -50 44 -61 26 -12 -19 29 -70 72 -91
73 -35 133 -5 133 68 0 26 -9 39 -45 69 -54 44 -58 77 -12 82 22 3 36 -5 62
-33 33 -37 55 -39 55 -6 0 32 -82 93 -123 90 -7 0 -22 -5 -33 -11z"/>
<path d="M2864 3402 c-170 -256 -187 -334 -113 -533 l40 -110 -65 -97 c-36
-53 -74 -108 -85 -122 l-21 -25 0 35 c0 44 -22 125 -44 168 -15 29 -16 51 -10
160 5 103 4 134 -9 164 -21 50 -90 124 -159 168 -53 34 -210 108 -267 125
l-24 7 5 -153 c6 -172 24 -241 80 -304 34 -40 66 -51 166 -59 68 -6 121 -25
163 -58 44 -36 79 -132 79 -220 0 -55 -1 -58 -47 -99 -62 -55 -140 -90 -214
-96 l-59 -6 -11 32 c-15 43 -40 54 -102 46 -81 -11 -107 -29 -107 -75 0 -14
-7 -35 -15 -47 -8 -11 -17 -40 -20 -64 -4 -24 -13 -61 -22 -81 -25 -59 -14
-72 54 -63 31 4 63 11 72 15 9 5 28 11 42 14 38 8 126 76 146 114 15 26 15 36
5 52 -19 31 -15 38 31 45 51 9 136 41 158 61 33 30 26 11 -24 -61 -46 -68 -62
-82 -170 -151 -65 -43 -141 -99 -167 -125 -45 -45 -100 -140 -100 -172 0 -8
-18 -19 -39 -26 -59 -17 -79 -48 -76 -118 2 -56 26 -131 47 -144 6 -4 18 -5
27 -2 10 2 22 -8 33 -27 10 -17 25 -33 35 -37 10 -4 24 -14 31 -22 11 -14 14
-14 27 4 8 11 23 29 34 40 30 31 54 129 48 194 -8 91 -20 107 -88 120 -33 7
-59 17 -59 24 1 28 41 99 82 143 41 45 246 189 255 180 3 -2 -3 -19 -13 -37
-9 -18 -24 -56 -34 -83 -17 -49 -18 -51 -52 -48 -30 3 -40 -3 -71 -38 -36 -39
-37 -42 -31 -98 7 -65 58 -177 90 -198 11 -8 26 -25 32 -39 14 -31 47 -33 63
-2 7 12 20 27 29 34 10 7 20 23 23 35 3 13 13 50 22 83 9 33 18 89 20 124 3
55 1 64 -16 68 -10 3 -19 12 -19 19 0 15 -8 17 -57 14 l-32 -1 18 54 c10 29
27 69 36 88 19 37 134 207 144 213 3 3 5 -14 3 -36 -3 -29 1 -48 16 -67 20
-27 20 -28 1 -39 -24 -15 -25 -63 -3 -98 9 -14 38 -37 63 -52 25 -14 73 -44
106 -65 37 -24 69 -37 85 -35 23 3 25 8 31 68 3 36 2 86 -3 111 -19 98 -112
208 -162 193 -32 -9 -70 -38 -81 -62 -16 -35 -30 -20 -33 36 -4 60 9 88 85
190 30 40 74 104 97 142 30 48 61 83 102 113 167 124 228 250 190 396 -9 35
-43 114 -75 177 l-59 113 -58 -87z"/>
<path d="M913 2501 c-56 -3 -104 -9 -108 -13 -4 -4 -4 -30 0 -57 9 -68 38 -91
112 -91 65 0 110 21 124 58 13 33 2 113 -14 110 -7 -1 -58 -4 -114 -7z m97
-66 c0 -43 -20 -55 -92 -55 -61 0 -78 11 -78 52 0 27 1 27 73 31 39 1 78 4 85
5 7 1 12 -11 12 -33z"/>
<path d="M3964 2475 c-17 -42 -18 -56 -2 -90 20 -45 94 -48 114 -5 7 14 16 38
21 55 9 33 36 44 58 25 20 -16 19 -50 -1 -78 -9 -13 -13 -30 -9 -40 6 -15 10
-13 31 11 33 39 33 99 -1 132 -44 45 -94 23 -117 -50 -11 -33 -18 -40 -38 -40
-21 0 -26 5 -28 33 -2 18 2 40 8 47 12 15 6 35 -11 35 -6 0 -17 -16 -25 -35z"/>
<path d="M1030 2281 c0 -28 -2 -29 -82 -44 -46 -8 -86 -13 -90 -11 -5 3 -8 14
-8 25 0 10 -7 19 -15 19 -18 0 -18 -7 -2 -84 14 -67 34 -85 39 -34 3 32 5 33
68 45 99 18 110 17 110 -12 0 -16 6 -25 15 -25 18 0 18 5 3 86 -7 41 -16 64
-25 64 -8 0 -13 -12 -13 -29z"/>
<path d="M4043 2278 c-97 -10 -102 -11 -108 -35 -3 -14 -5 -27 -3 -28 16 -15
216 -113 221 -108 15 14 6 33 -23 48 -26 13 -29 19 -23 48 7 36 18 47 49 47
12 0 25 7 28 16 11 28 24 27 -141 12z m37 -52 c0 -42 -10 -46 -56 -23 -49 24
-43 37 19 37 25 0 37 -4 37 -14z"/>
<path d="M1023 2105 c-34 -15 -43 -38 -36 -94 5 -33 2 -41 -18 -51 -20 -11
-25 -10 -41 10 -13 16 -18 36 -16 59 2 27 -1 36 -12 36 -11 0 -16 -13 -18 -46
-4 -59 25 -99 72 -99 55 0 71 20 69 84 -2 47 0 57 18 66 31 17 49 -4 49 -56 0
-32 4 -44 15 -44 21 0 29 43 15 84 -18 54 -49 71 -97 51z"/>
<path d="M4095 2019 c-9 -27 -22 -49 -29 -49 -7 0 -52 13 -100 30 -74 25 -88
27 -93 14 -3 -9 -2 -19 3 -24 10 -10 214 -74 218 -68 2 1 11 28 21 58 10 30
20 60 22 66 2 6 -3 14 -11 17 -11 4 -19 -7 -31 -44z"/>
<path d="M1127 1954 c-3 -4 0 -19 8 -35 8 -15 15 -30 15 -33 0 -3 -40 -26 -90
-51 -49 -25 -90 -49 -90 -55 0 -23 26 -18 107 20 93 43 88 44 119 -7 9 -13 15
-15 23 -7 8 7 0 33 -29 92 -37 77 -48 91 -63 76z"/>
<path d="M3821 1889 c-28 -46 -26 -62 10 -103 39 -45 120 -73 162 -57 34 13
57 63 48 100 -11 41 -81 83 -145 89 -53 4 -55 4 -75 -29z m146 -35 c36 -21 44
-30 41 -51 -5 -39 -29 -49 -78 -33 -56 18 -90 46 -90 74 0 53 48 57 127 10z"/>
<path d="M1137 1703 c-85 -58 -96 -68 -83 -81 12 -12 19 -11 52 12 52 35 66
14 29 -48 -23 -39 -26 -76 -5 -76 4 0 18 20 30 43 22 41 25 43 51 34 32 -13
73 9 91 48 9 21 6 32 -23 80 -18 30 -36 55 -39 54 -3 0 -49 -30 -103 -66z
m133 -46 c0 -25 -45 -44 -65 -27 -36 30 -36 47 -2 69 l32 20 17 -22 c10 -12
18 -30 18 -40z"/>
<path d="M3761 1748 c-60 -22 -70 -96 -18 -146 34 -33 93 -62 127 -62 31 0 70
44 70 79 0 42 -9 61 -26 54 -11 -4 -13 -14 -9 -35 8 -35 -8 -58 -40 -58 -34 0
-119 61 -123 88 -5 30 14 52 44 52 14 0 24 6 24 14 0 19 -20 25 -49 14z"/>
<path d="M1336 1601 c-3 -5 1 -14 9 -21 20 -17 19 -35 -4 -51 -10 -8 -40 -31
-65 -53 -45 -38 -47 -38 -66 -21 -14 12 -24 15 -30 9 -15 -15 85 -123 100
-108 8 8 7 14 -5 24 -8 7 -15 16 -15 20 0 5 30 34 66 66 l66 58 17 -21 c12
-14 22 -18 31 -13 10 6 1 22 -35 64 -49 56 -59 63 -69 47z"/>
<path d="M3627 1587 c-9 -12 -29 -36 -43 -54 -31 -38 -23 -65 10 -34 l21 20
67 -56 c65 -55 66 -56 51 -80 -10 -15 -12 -28 -6 -34 9 -9 103 90 103 110 0
18 -25 12 -38 -10 -12 -19 -15 -18 -83 42 -66 58 -69 63 -53 80 9 10 13 23 9
28 -9 16 -18 13 -38 -12z"/>
<path d="M1395 1375 c-43 -47 -76 -87 -74 -89 46 -43 96 -76 115 -76 36 0 67
36 61 70 -5 24 -3 27 13 23 22 -6 60 29 60 57 0 23 -66 100 -85 100 -7 0 -47
-38 -90 -85z m119 26 c37 -41 -3 -87 -48 -57 l-27 17 21 29 c25 35 31 36 54
11z m-67 -83 c28 -26 29 -40 4 -62 -15 -13 -24 -15 -38 -7 -39 20 -45 36 -22
65 25 32 27 32 56 4z"/>
<path d="M3460 1411 l-45 -38 37 -44 c103 -124 123 -142 136 -126 11 13 8 21
-17 49 -43 49 -26 63 43 38 44 -17 52 -18 65 -5 13 12 12 15 -5 21 -78 28 -80
30 -76 66 3 29 -1 39 -23 57 -39 30 -64 26 -115 -18z m92 -18 c24 -21 23 -28
-8 -57 l-27 -24 -25 29 c-23 29 -24 30 -7 49 22 24 43 25 67 3z"/>
<path d="M1590 1303 c-52 -77 -80 -129 -80 -150 0 -27 54 -73 86 -73 29 0 49
19 101 96 55 82 54 80 39 93 -12 10 -24 -2 -66 -64 -54 -80 -72 -95 -99 -78
-29 18 -22 47 29 122 27 40 48 77 44 82 -11 18 -29 8 -54 -28z"/>
<path d="M3305 1295 c-34 -33 -33 -79 4 -137 33 -51 66 -78 96 -78 31 0 65 28
65 53 0 18 2 19 10 7 7 -11 12 -12 21 -3 9 9 4 23 -21 62 l-32 51 -29 -21
c-16 -11 -29 -27 -29 -35 0 -16 16 -19 25 -4 19 30 52 -18 35 -50 -25 -46 -96
-2 -130 79 -13 32 -12 35 9 52 17 14 28 16 41 9 24 -13 52 16 29 31 -26 16
-69 10 -94 -16z"/>
<path d="M1794 1210 c-32 -13 -71 -69 -85 -122 -11 -40 -10 -49 5 -72 22 -34
63 -51 96 -39 38 13 32 39 -8 35 -66 -7 -78 32 -34 113 18 34 34 51 50 53 28
4 52 -14 52 -39 0 -12 7 -19 20 -19 40 0 13 66 -35 85 -19 8 -36 15 -37 14 -2
0 -13 -4 -24 -9z"/>
<path d="M3141 1201 c-12 -8 -10 -27 7 -126 12 -65 23 -120 25 -122 2 -2 11
-1 19 2 9 4 13 16 10 40 -4 29 0 35 28 50 31 16 33 16 56 -5 14 -14 29 -20 39
-16 15 5 14 9 -5 33 -42 54 -142 153 -153 153 -7 0 -18 -4 -26 -9z m82 -118
c-22 -17 -43 -16 -43 1 0 7 -3 29 -6 47 l-7 34 37 -35 c34 -32 35 -36 19 -47z"/>
<path d="M1956 1144 c-4 -9 4 -18 20 -24 14 -6 24 -16 21 -23 -2 -6 -15 -45
-28 -84 -21 -67 -25 -72 -48 -70 -46 4 -37 -16 14 -33 94 -32 95 -32 95 -17 0
7 -11 19 -25 25 l-25 12 19 47 c10 27 24 65 30 85 11 34 14 36 37 28 33 -13
34 -13 34 5 0 8 -2 15 -5 15 -2 0 -34 11 -69 24 -54 21 -65 22 -70 10z"/>
<path d="M2165 1078 c-31 -18 -43 -39 -56 -94 -19 -85 10 -144 72 -144 45 0
65 15 83 61 33 82 19 161 -30 179 -32 13 -44 12 -69 -2z m75 -48 c14 -26 -4
-123 -26 -145 -18 -18 -29 -19 -56 -4 -18 10 -20 17 -14 65 9 78 23 104 57
104 18 0 32 -7 39 -20z"/>
<path d="M2765 1078 c-77 -42 -51 -128 38 -128 24 0 48 -5 55 -12 36 -36 -14
-81 -68 -61 -23 9 -32 8 -40 -2 -15 -17 16 -35 60 -35 74 0 119 56 89 109 -12
21 -24 27 -64 31 -60 6 -75 15 -75 41 0 26 46 44 78 30 18 -9 24 -8 29 5 12
31 -58 46 -102 22z"/>
<path d="M2326 1008 c-17 -169 -16 -188 4 -188 18 0 20 7 21 63 2 117 12 121
42 19 25 -84 30 -92 52 -92 20 0 25 5 26 28 0 15 4 69 7 120 6 81 5 92 -9 92
-13 0 -18 -17 -24 -92 l-7 -93 -19 60 c-10 33 -24 77 -29 98 -9 29 -16 37 -35
37 -21 0 -24 -5 -29 -52z"/>
<path d="M2560 1053 l-35 -4 6 -97 c4 -53 7 -107 8 -119 1 -18 7 -23 30 -23
115 0 170 36 64 42 -57 3 -58 3 -61 35 l-3 32 53 3 c41 2 54 7 56 21 3 15 -2
17 -52 11 l-56 -7 0 35 c0 36 0 36 55 43 38 4 55 11 55 21 0 14 -34 16 -120 7z"/>
</g>
</svg>
